<svg width="24" height="24" viewBox="0 0 24 24" fill="none" xmlns="http://www.w3.org/2000/svg">
<g clip-path="url(#clip0_97_772)">
<path d="M14.5262 6.29362C14.4527 6.21989 14.3653 6.1614 14.2692 6.12149C14.173 6.08158 14.0699 6.06104 13.9657 6.06104C13.8616 6.06104 13.7585 6.08158 13.6623 6.12149C13.5661 6.1614 13.4788 6.21989 13.4052 6.29362L8.14225 11.5566C8.08353 11.6152 8.03695 11.6848 8.00517 11.7614C7.97339 11.838 7.95703 11.9202 7.95703 12.0031C7.95703 12.0861 7.97339 12.1682 8.00517 12.2448C8.03695 12.3214 8.08353 12.391 8.14225 12.4496L13.4052 17.7126C13.7156 18.023 14.2159 18.023 14.5262 17.7126C14.8366 17.4023 14.8366 16.902 14.5262 16.5916L9.94091 12L14.5326 7.40828C14.8366 7.10428 14.8366 6.59762 14.5262 6.29362Z" fill="#636268" stroke="#636268" stroke-width="0.2"/>
</g>
<defs>
<clipPath id="clip0_97_772">
<rect width="8.8" height="12" fill="white" transform="translate(7.19995 6)"/>
</clipPath>
</defs>
</svg>
