<svg width="46" height="39" viewBox="0 0 46 39" fill="none" xmlns="http://www.w3.org/2000/svg">
<g clip-path="url(#clip0_518_269)">
<mask id="mask0_518_269" style="mask-type:luminance" maskUnits="userSpaceOnUse" x="0" y="0" width="46" height="39">
<path d="M45.1976 0H0V39H45.1976V0Z" fill="white"/>
</mask>
<g mask="url(#mask0_518_269)">
<path d="M45.1451 29.1069C44.8124 24.5768 43.0087 19.3178 40.0842 14.3018C37.1598 9.26845 33.4648 5.1029 29.6648 2.53414C29.3671 2.32586 29.0694 2.1523 28.7892 1.99609C29.5247 3.26311 30.1026 5.01612 30.2076 7.39396C32.6768 9.63294 35.0759 12.6529 37.0372 16.0375C39.6639 20.5501 41.3626 25.41 41.6603 29.3672C41.9405 32.9427 41.0649 34.7651 40.1718 35.2858C39.2787 35.8065 37.2473 35.6329 34.2528 33.6022C31.2408 31.5542 28.1413 28.1696 25.6371 24.1603C25.3919 23.7784 25.1468 23.3793 24.9191 22.9801C23.5707 20.6716 22.4675 18.2764 21.6795 15.9507C20.9265 13.729 20.4361 11.5768 20.2961 9.63294C20.156 7.93201 20.2961 6.63027 20.5587 5.67566C19.9984 5.91865 19.3154 6.28314 18.5099 6.83855C17.932 7.23775 17.3366 7.68902 16.7412 8.22707C16.7412 8.74776 16.7587 9.30317 16.8112 9.89329C17.0564 13.1563 18.0546 16.8011 19.7007 20.4634C20.3311 21.8866 21.0491 23.3098 21.8721 24.7157C22.4325 25.6877 23.0279 26.6249 23.6758 27.5274C26.2325 31.2764 29.227 34.4006 32.2915 36.466C35.1459 38.41 37.3874 39.0001 39.051 39.0001C40.3644 39.0001 41.31 38.6356 41.9229 38.2885C43.3239 37.4901 45.6179 35.2164 45.1451 29.1069Z" fill="#D3AA46"/>
<path d="M25.1991 0.711982C23.8682 -0.0343468 21.0489 -0.815389 16.4783 1.94429C16.1806 2.11786 15.8654 2.32613 15.5502 2.53441C11.7677 5.10317 8.07274 9.26872 5.1483 14.3021C2.22385 19.3181 0.420156 24.5771 0.0699226 29.1072C-0.402892 35.2166 1.89113 37.4903 3.30958 38.2887C3.92248 38.6359 4.86811 39.0004 6.16397 39.0004C7.82758 39.0004 10.0691 38.4102 12.941 36.4663C15.988 34.4009 18.9825 31.2767 21.5392 27.5277C21.1539 26.8855 20.7512 26.2433 20.3659 25.5838C20.0857 25.1152 19.823 24.6465 19.5779 24.1606C17.0737 28.1526 13.9742 31.5718 10.9621 33.6025C7.98519 35.6332 5.95383 35.8068 5.06074 35.2861C4.15013 34.7654 3.29206 32.9429 3.57225 29.3675C3.86995 25.4102 5.55107 20.5331 8.17781 16.0377C10.1391 12.6532 12.5557 9.65056 15.0248 7.39422C15.8654 6.63054 16.706 5.97099 17.529 5.39823C19.6304 3.975 21.2415 3.47166 22.3447 3.47166C22.8 3.47166 23.1678 3.55844 23.448 3.71465C23.9208 3.99235 24.3761 4.61719 24.6563 5.67593H24.6738C24.9364 6.63054 25.059 7.93227 24.9364 9.63321C24.7788 11.5771 24.306 13.7293 23.5355 15.951C24.0609 17.4436 24.7438 18.971 25.5143 20.4636C27.1604 16.8188 28.1761 13.1739 28.4213 9.89355C28.4738 9.30343 28.4913 8.76538 28.4913 8.24469C28.4738 3.36752 26.4775 1.45831 25.1991 0.711982Z" fill="#B8860B"/>
</g>
</g>
<defs>
<clipPath id="clip0_518_269">
<rect width="46" height="39" fill="white"/>
</clipPath>
</defs>
</svg>
