<svg width="280" height="280" viewBox="0 0 280 280" fill="none" xmlns="http://www.w3.org/2000/svg">
<path d="M46.3261 209.322C53.7321 227.395 65.8076 231.157 74.2981 227.395C90.7183 220.12 133.372 211.992 177.179 231.099C235.199 256.405 247.544 218.224 229.027 179.604C210.51 140.983 204.233 101.926 225.58 80.4083C246.927 58.8905 218.992 25.2293 169.384 60.2683C137.325 82.9119 113.798 77.8697 101.164 71.4683C89.2566 65.4353 76.0143 59.1282 63.6076 64.0527C48.553 70.0284 42.6216 82.9845 65.5256 111.928C97.9839 152.943 29.7235 168.812 46.3261 209.322Z" fill="#DEE9FF"/>
<path d="M214.055 84.5612C213.858 84.8109 213.637 85.0406 213.395 85.2472L196.089 100.224L183.172 139.456L147.163 165.769C147.163 165.769 141.028 170.909 135.427 171.385C134.174 171.824 130.375 173.302 128.272 175.585C127.593 176.322 122.274 192.031 114.024 214.246C113.611 215.358 112.798 216.275 111.743 216.818C110.689 217.36 109.469 217.489 108.325 217.179C98.0156 214.381 74.9245 208.22 63.9382 204.058C63.2611 203.802 62.6571 203.384 62.1788 202.841C61.7006 202.297 61.3627 201.645 61.1947 200.941C61.0267 200.237 61.0338 199.503 61.2152 198.802C61.3967 198.101 61.747 197.456 62.2356 196.922C74.86 183.123 101.402 151.538 101.402 151.538L103.203 147.798C103.203 147.798 114.541 112.371 118.25 110.068C119.653 108.545 127.72 96.7352 130.894 88.4965C131.616 87.2975 134.962 82.3074 137.765 77.9989C139.751 74.9189 141.475 72.1789 141.769 71.3963C141.832 71.217 141.938 71.0557 142.078 70.9265C142.078 70.9265 142.069 70.924 142.08 70.9175C143.418 69.5205 147.855 69.836 148.071 75.1398C148.311 80.9904 143.05 93.1272 141.991 93.4579C141.455 94.7487 139.933 101.701 136.955 107.587C136.698 108.477 136.315 110.775 138.827 110.217C141.341 109.651 199.497 82.2542 199.497 82.2542L206.709 77.7232C207.771 77.0357 209.035 76.7275 210.295 76.8489C211.787 77.0205 213.154 77.7635 214.11 78.9219C216.168 81.3066 214.824 83.5977 214.055 84.5612Z" fill="#699CFF"/>
<path d="M140.705 78.9614C139.666 79.0569 138.605 78.5585 137.765 77.9982C139.751 74.9182 141.475 72.1782 141.769 71.3956C141.833 71.2163 141.939 71.055 142.078 70.9258C144.472 73.7839 140.992 78.6682 140.705 78.9614Z" fill="#D4E5FF"/>
<path d="M200.134 72.6463L157.518 60.3628C154.546 59.5062 151.442 61.2209 150.586 64.1927L124.798 153.659C123.942 156.63 125.656 159.734 128.628 160.591L171.244 172.874C174.216 173.731 177.32 172.016 178.176 169.044L203.964 79.5782C204.82 76.6064 203.106 73.5029 200.134 72.6463Z" fill="#0E84E5"/>
<path d="M197.894 74.8868L158.221 63.4518C155.993 62.8094 153.665 64.0954 153.023 66.3243L127.996 153.151C127.353 155.38 128.639 157.707 130.868 158.35L170.54 169.785C172.769 170.427 175.097 169.141 175.739 166.912L200.766 80.0858C201.408 77.8569 200.122 75.5293 197.894 74.8868Z" fill="#D4E5FF"/>
<path d="M199.924 104.157L192.771 104.101C189.233 104.073 186.343 106.918 186.315 110.456C186.287 113.994 189.132 116.885 192.67 116.912L199.823 116.969C203.36 116.997 206.251 114.151 206.279 110.613C206.307 107.076 203.462 104.185 199.924 104.157Z" fill="#699CFF"/>
<path d="M197.444 117.398L188.388 117.327C185.519 117.304 183.175 119.611 183.152 122.48C183.13 125.349 185.437 127.693 188.306 127.716L197.362 127.787C200.231 127.81 202.575 125.503 202.597 122.634C202.62 119.765 200.313 117.421 197.444 117.398Z" fill="#699CFF"/>
<path d="M191.405 128.766L186.054 128.723C183.886 128.706 182.114 130.45 182.097 132.619C182.08 134.787 183.824 136.559 185.992 136.576L191.343 136.618C193.511 136.636 195.283 134.892 195.3 132.723C195.317 130.554 193.573 128.783 191.405 128.766Z" fill="#699CFF"/>
<path d="M188.256 130.186L185.13 130.162C184.589 130.158 184.147 130.593 184.142 131.134L184.12 133.931C184.116 134.472 184.551 134.914 185.093 134.919L188.219 134.943C188.76 134.947 189.202 134.512 189.206 133.971L189.229 131.174C189.233 130.633 188.798 130.191 188.256 130.186Z" fill="#D4E5FF"/>
<path d="M191.426 119.792L187.924 119.764C186.764 119.755 185.817 120.688 185.807 121.847L185.794 123.541C185.785 124.701 186.718 125.649 187.877 125.658L191.38 125.686C192.54 125.695 193.487 124.762 193.496 123.602L193.51 121.908C193.519 120.748 192.586 119.801 191.426 119.792Z" fill="#D4E5FF"/>
<path d="M195.913 106.355L193.085 106.333C191.539 106.321 190.275 107.565 190.263 109.111L190.246 111.335C190.233 112.881 191.477 114.145 193.023 114.157L195.851 114.179C197.398 114.191 198.661 112.948 198.673 111.401L198.691 109.177C198.703 107.631 197.459 106.368 195.913 106.355Z" fill="#D4E5FF"/>
<path d="M90.2892 133.068C90.0875 133.691 90.075 134.36 90.2533 134.99C90.4317 135.62 90.7928 136.183 91.291 136.607C91.7893 137.032 92.4023 137.3 93.0525 137.376C93.7028 137.452 94.361 137.334 94.9441 137.036C95.5272 136.739 96.0088 136.275 96.3282 135.703C96.6476 135.131 96.7903 134.478 96.7383 133.825C96.6863 133.173 96.442 132.55 96.0362 132.036C95.6304 131.523 95.0813 131.141 94.4585 130.939C93.6232 130.669 92.7148 130.741 91.9329 131.14C91.151 131.54 90.5598 132.233 90.2892 133.068Z" fill="#699CFF"/>
<path d="M88.7933 124.993C87.5969 125.6 86.5327 126.438 85.6625 127.459C84.7923 128.48 84.1334 129.664 83.7239 130.941C83.5656 131.43 83.6079 131.962 83.8416 132.419C84.0753 132.877 84.4812 133.223 84.97 133.381C85.4589 133.54 85.9906 133.497 86.4482 133.264C86.9058 133.03 87.2518 132.624 87.4101 132.135C87.6664 131.343 88.0761 130.61 88.6159 129.977C89.1556 129.344 89.8149 128.823 90.5559 128.444C91.2969 128.066 92.1053 127.837 92.9347 127.771C93.7642 127.705 94.5985 127.803 95.3901 128.06C95.8789 128.218 96.4106 128.176 96.8682 127.942C97.3258 127.708 97.6718 127.302 97.8301 126.813C97.9885 126.325 97.9461 125.793 97.7124 125.335C97.4787 124.878 97.0728 124.532 96.584 124.373C95.309 123.956 93.9639 123.796 92.6266 123.903C91.2892 124.009 89.9863 124.38 88.7933 124.993V124.993Z" fill="#699CFF"/>
<path d="M85.8915 119.311C83.9475 120.297 82.2183 121.659 80.8043 123.318C79.3902 124.977 78.3192 126.9 77.6533 128.976C77.5735 129.218 77.5424 129.474 77.5617 129.728C77.5811 129.983 77.6505 130.231 77.766 130.459C77.8815 130.686 78.0408 130.889 78.2349 131.054C78.4289 131.22 78.6537 131.346 78.8965 131.425C79.1393 131.503 79.3952 131.533 79.6496 131.513C79.904 131.492 80.1518 131.421 80.3788 131.305C80.6058 131.188 80.8075 131.028 80.9723 130.833C81.1372 130.638 81.2619 130.413 81.3394 130.17C81.8538 128.581 82.6762 127.109 83.7595 125.838C84.8429 124.567 86.1659 123.522 87.6532 122.762C89.1404 122.003 90.7627 121.544 92.4274 121.411C94.0922 121.279 95.7667 121.475 97.3554 121.99C97.8442 122.148 98.3759 122.106 98.8335 121.872C99.2911 121.639 99.6371 121.233 99.7954 120.744C99.9537 120.255 99.9113 119.723 99.6776 119.266C99.4439 118.808 99.038 118.462 98.5492 118.304C96.4775 117.626 94.2921 117.367 92.1194 117.54C89.9467 117.712 87.8299 118.315 85.8915 119.311V119.311Z" fill="#699CFF"/>
<path d="M100.52 112.221C97.6486 111.291 94.6219 110.935 91.6128 111.175C88.6038 111.414 85.6714 112.244 82.9831 113.617C80.2949 114.99 77.9034 116.879 75.9452 119.176C73.9871 121.474 72.5007 124.134 71.5708 127.006C71.4924 127.248 71.4625 127.503 71.4827 127.757C71.5029 128.01 71.5728 128.257 71.6885 128.484C71.8043 128.711 71.9635 128.912 72.1571 129.077C72.3507 129.242 72.5749 129.367 72.817 129.446C73.059 129.524 73.3141 129.554 73.5677 129.534C73.8213 129.514 74.0685 129.444 74.2951 129.328C74.5217 129.212 74.7232 129.053 74.8883 128.86C75.0533 128.666 75.1786 128.442 75.257 128.2C76.0301 125.812 77.2659 123.6 78.8939 121.69C80.5219 119.78 82.5103 118.21 84.7453 117.068C86.9804 115.927 89.4184 115.237 91.9202 115.038C94.422 114.838 96.9385 115.134 99.3259 115.908C99.8149 116.066 100.347 116.024 100.804 115.79C101.262 115.556 101.608 115.15 101.767 114.661C101.925 114.173 101.883 113.641 101.649 113.183C101.415 112.725 101.009 112.379 100.52 112.221V112.221Z" fill="#699CFF"/>
<path d="M224.38 41.8482C219.835 39.0726 216.103 40.4918 214.992 42.3102C214.19 43.6236 214.931 44.9081 215.84 45.4633C217.658 46.5735 218.501 43.5284 221.935 45.6256C223.619 46.6536 224.513 48.217 223.567 49.7658C222.456 51.5841 219.934 51.4766 218.247 51.7409C216.757 51.9866 214.634 52.5859 212.866 55.4817C211.796 57.2327 211.959 58.0255 213.34 58.8686C214.989 59.8759 215.778 59.3408 216.169 58.7006C217.238 56.9496 217.889 55.9599 220.625 55.6428C221.966 55.4909 226.226 54.9486 228.159 51.7835C230.092 48.6183 228.69 44.4799 224.38 41.8482Z" fill="#0E84E5"/>
<path d="M211.954 61.2121C211.614 61.0042 211.235 60.8653 210.841 60.8035C210.447 60.7417 210.045 60.7582 209.657 60.8519C209.269 60.9456 208.904 61.1148 208.581 61.3498C208.259 61.5848 207.986 61.8811 207.778 62.2216C207.57 62.5621 207.431 62.9402 207.369 63.3343C207.307 63.7285 207.324 64.131 207.418 64.5188C207.511 64.9066 207.681 65.2721 207.916 65.5945C208.151 65.9169 208.447 66.1899 208.787 66.3978C209.475 66.8178 210.301 66.9473 211.085 66.758C211.868 66.5687 212.544 66.076 212.964 65.3884C213.384 64.7007 213.513 63.8744 213.324 63.0912C213.134 62.308 212.642 61.632 211.954 61.2121V61.2121Z" fill="#0E84E5"/>
</svg>
