<svg width="280" height="280" viewBox="0 0 280 280" fill="none" xmlns="http://www.w3.org/2000/svg">
<path d="M173.464 58.0227C173.464 58.0227 144.088 95.233 97.085 73.0381C50.0821 50.8432 3.07991 110.901 43.5539 147.458C84.0279 184.016 44.4211 204.104 71.9179 226.509C103.17 251.973 130.378 200.336 155.185 212.087C209.935 238.021 250.496 227.754 241.357 197.725C225.314 145.012 204.799 141.583 220.467 114.165C236.134 86.7465 201.556 29.7372 173.464 58.0227Z" fill="#DEE9FF"/>
<path d="M123.275 174.775C123.275 200.042 143.755 220.522 169.022 220.522C174.906 220.532 180.736 219.399 186.188 217.187C186.3 217.201 186.413 217.207 186.526 217.207H206.549C207.193 217.208 207.831 217.081 208.427 216.834C209.022 216.588 209.563 216.227 210.019 215.771C210.474 215.315 210.836 214.774 211.082 214.179C211.329 213.584 211.455 212.945 211.455 212.301V191.894C213.654 186.454 214.779 180.641 214.77 174.775C214.77 149.507 194.29 129.027 169.022 129.027C143.755 129.027 123.275 149.507 123.275 174.775Z" fill="#A2BDFF"/>
<path d="M187.334 142.348C187.334 174.046 161.64 199.74 129.941 199.74C122.56 199.752 115.246 198.331 108.407 195.556C108.266 195.573 108.124 195.581 107.982 195.581H82.8626C82.0542 195.581 81.2536 195.423 80.5066 195.113C79.7596 194.804 79.0809 194.351 78.5093 193.779C77.9377 193.208 77.4843 192.529 77.1751 191.782C76.866 191.035 76.7071 190.234 76.7075 189.426V163.824C73.9491 157.001 72.5369 149.708 72.5487 142.348C72.5487 110.649 98.242 84.9558 129.941 84.9558C161.64 84.9558 187.334 110.649 187.334 142.348Z" fill="#418DF9"/>
<path d="M103.325 153.992C107.918 153.992 111.642 150.268 111.642 145.675C111.642 141.081 107.918 137.357 103.325 137.357C98.7308 137.357 95.0068 141.081 95.0068 145.675C95.0068 150.268 98.7308 153.992 103.325 153.992Z" fill="white"/>
<path d="M127.445 153.992C132.039 153.992 135.763 150.268 135.763 145.675C135.763 141.081 132.039 137.357 127.445 137.357C122.851 137.357 119.127 141.081 119.127 145.675C119.127 150.268 122.851 153.992 127.445 153.992Z" fill="white"/>
<path d="M152.399 153.992C156.993 153.992 160.717 150.268 160.717 145.675C160.717 141.081 156.993 137.357 152.399 137.357C147.805 137.357 144.081 141.081 144.081 145.675C144.081 150.268 147.805 153.992 152.399 153.992Z" fill="white"/>
<path d="M178.184 114.899C186.452 114.899 193.155 108.196 193.155 99.9272C193.155 91.6585 186.452 84.9553 178.184 84.9553C169.915 84.9553 163.212 91.6585 163.212 99.9272C163.212 108.196 169.915 114.899 178.184 114.899Z" fill="#418DF9" stroke="white" stroke-width="15" stroke-miterlimit="10"/>
<path d="M182.942 95.4899C182.745 94.7285 182.391 94.0166 181.903 93.3997C181.473 92.88 180.915 92.4814 180.283 92.2431C178.921 91.7731 177.44 91.7731 176.078 92.2431C175.448 92.4799 174.891 92.8789 174.464 93.3997C173.971 94.0136 173.617 94.7266 173.425 95.4899C173.162 96.518 173.04 97.5768 173.06 98.6377V101.161C173.039 102.224 173.163 103.286 173.431 104.315C173.625 105.084 173.982 105.803 174.476 106.424C174.906 106.949 175.464 107.354 176.097 107.599C177.452 108.085 178.934 108.085 180.289 107.599C180.918 107.353 181.472 106.948 181.897 106.424C182.384 105.8 182.736 105.082 182.93 104.315C183.192 103.285 183.315 102.224 183.295 101.161H183.307V98.6377C183.328 97.5768 183.205 96.518 182.942 95.4899V95.4899ZM180.685 101.538C180.694 102.211 180.64 102.884 180.524 103.548C180.446 104.02 180.285 104.474 180.048 104.89C179.866 105.21 179.596 105.472 179.269 105.644C178.934 105.806 178.565 105.886 178.193 105.879C177.821 105.885 177.453 105.804 177.117 105.644C176.786 105.471 176.51 105.21 176.319 104.89C176.077 104.475 175.91 104.021 175.824 103.548C175.698 102.886 175.64 102.212 175.651 101.538V98.2357C175.64 97.5639 175.696 96.8928 175.818 96.232C175.899 95.7688 176.065 95.3244 176.307 94.9209C176.498 94.6126 176.773 94.3641 177.098 94.2036C177.436 94.0567 177.8 93.981 178.168 93.981C178.536 93.981 178.9 94.0567 179.238 94.2036C179.566 94.3602 179.841 94.6096 180.03 94.9209C180.271 95.3245 180.437 95.7688 180.518 96.232C180.64 96.8927 180.696 97.5639 180.685 98.2357V101.538L180.685 101.538Z" fill="white"/>
</svg>
