<svg width="280" height="280" viewBox="0 0 280 280" fill="none" xmlns="http://www.w3.org/2000/svg">
<path d="M95.76 79.7228C95.76 79.7228 123.124 100.488 164.726 61.6603C201.672 27.1783 231.838 81.5834 232.049 107.637C232.322 141.388 195.103 168.393 213.166 190.56C231.228 212.728 177.345 249.334 148.305 217.654C112.18 178.245 102.394 210.265 81.8027 210.265C67.0243 210.265 36.6828 173.544 57.1721 146.225C74.4135 123.237 65.0104 115.607 60.4562 107.637C53.8881 96.1431 69.4875 64.9444 95.76 79.7228Z" fill="#DEE9FF"/>
<path d="M203.629 174.789L103.161 205.635C101.497 206.145 99.6975 205.974 98.1593 205.158C96.6212 204.342 95.4702 202.948 94.9594 201.283L83.2106 163.024L73.4569 131.251L73.2681 130.643L74.6062 129.099L118.268 78.7555C118.468 78.5224 118.73 78.3508 119.023 78.2607C119.317 78.1706 119.63 78.1656 119.926 78.2463L184.344 95.4303L186.29 95.9475L186.889 97.8851L207.981 166.58C208.49 168.245 208.318 170.045 207.502 171.584C206.687 173.123 205.294 174.276 203.629 174.789Z" fill="#418DF9"/>
<path d="M186.889 97.8845L148.81 142.745V140.282L184.344 95.4297L186.29 95.9469L186.889 97.8845Z" fill="#208AF2"/>
<path d="M203.746 174.75C203.672 174.775 203.591 174.775 203.516 174.75L142.022 151.918C141.973 151.899 141.928 151.869 141.892 151.83C141.856 151.79 141.83 151.743 141.816 151.692C141.802 151.641 141.799 151.587 141.81 151.535C141.82 151.483 141.842 151.434 141.874 151.392L152.154 138.568L185.897 96.4424C185.934 96.3945 185.984 96.3577 186.04 96.3361C186.097 96.3145 186.158 96.3089 186.217 96.32C186.277 96.331 186.332 96.3582 186.377 96.3987C186.422 96.4391 186.455 96.4911 186.472 96.549L207.835 166.138L207.975 166.581C208.482 168.225 208.324 170.003 207.532 171.531C206.741 173.059 205.382 174.215 203.746 174.75V174.75Z" fill="#A2BDFF"/>
<path d="M138.096 149.338L137.538 150.504L73.8757 130.832C73.8175 130.814 73.7555 130.812 73.6963 130.827C73.6372 130.842 73.5832 130.872 73.5401 130.915C73.497 130.958 73.4665 131.012 73.4518 131.071C73.4372 131.13 73.4389 131.193 73.4569 131.251L73.2681 130.643L74.6062 129.1L138.096 149.338Z" fill="#208AF2"/>
<path d="M141.322 152.129L103.235 205.537C103.191 205.603 103.124 205.65 103.046 205.668C101.393 206.143 99.6186 205.95 98.106 205.13C96.5934 204.31 95.4634 202.929 94.9593 201.284L83.2105 163.024L73.4568 131.251C73.4388 131.193 73.4371 131.131 73.4517 131.072C73.4664 131.012 73.4969 130.958 73.54 130.915C73.5831 130.872 73.6371 130.842 73.6962 130.827C73.7553 130.813 73.8174 130.814 73.8756 130.832L137.537 150.504L141.149 151.621C141.199 151.636 141.245 151.663 141.282 151.7C141.32 151.737 141.348 151.782 141.365 151.831C141.382 151.881 141.387 151.934 141.379 151.985C141.372 152.037 141.352 152.087 141.322 152.129V152.129Z" fill="#A2BDFF"/>
<path d="M203.627 174.79L103.165 205.635C101.644 206.098 100.007 205.994 98.5568 205.343C97.1062 204.693 95.9399 203.54 95.2732 202.097C95.1608 201.85 95.1109 201.58 95.128 201.309C95.1451 201.039 95.2287 200.777 95.3712 200.547L135.409 135.329C135.618 134.988 135.944 134.735 136.327 134.618C136.709 134.501 137.121 134.527 137.485 134.691L207.223 166.204C207.47 166.315 207.686 166.485 207.852 166.699C208.018 166.914 208.128 167.165 208.173 167.432C208.431 169.001 208.113 170.61 207.278 171.963C206.442 173.315 205.145 174.319 203.627 174.79V174.79Z" fill="#699CFF"/>
<path d="M183.796 72.3999C183.737 72.3998 183.678 72.3846 183.626 72.3556C183.574 72.3267 183.531 72.2849 183.499 72.2343C183.468 72.1837 183.45 72.126 183.447 72.0665C183.444 72.007 183.457 71.9478 183.483 71.8945C183.783 71.2887 183.943 70.9565 183.944 70.9556C183.963 70.9126 183.99 70.8738 184.024 70.8415C184.058 70.8093 184.099 70.7843 184.143 70.768C184.187 70.7517 184.234 70.7445 184.281 70.7467C184.328 70.749 184.374 70.7607 184.416 70.7811C184.459 70.8016 184.496 70.8303 184.527 70.8657C184.558 70.9011 184.582 70.9423 184.597 70.987C184.611 71.0317 184.617 71.0788 184.613 71.1257C184.609 71.1726 184.596 71.2181 184.574 71.2597C184.574 71.2597 184.412 71.5942 184.11 72.2051C184.081 72.2636 184.036 72.3127 183.981 72.3472C183.925 72.3816 183.862 72.3998 183.796 72.3999Z" fill="white"/>
<path d="M148.453 122.26C148.386 122.26 148.321 122.241 148.265 122.205C148.208 122.169 148.164 122.118 148.135 122.058C148.107 121.998 148.097 121.93 148.106 121.864C148.114 121.798 148.142 121.736 148.185 121.685C148.637 121.146 149.067 120.611 149.462 120.096C149.518 120.022 149.602 119.974 149.694 119.962C149.786 119.95 149.879 119.975 149.953 120.031C150.026 120.088 150.075 120.171 150.087 120.263C150.099 120.355 150.074 120.448 150.017 120.522C149.616 121.045 149.18 121.588 148.721 122.135C148.688 122.174 148.647 122.206 148.601 122.227C148.554 122.249 148.504 122.26 148.453 122.26V122.26ZM150.945 118.995C150.881 118.995 150.819 118.978 150.764 118.945C150.71 118.912 150.665 118.865 150.635 118.809C150.606 118.753 150.592 118.69 150.595 118.626C150.599 118.563 150.62 118.501 150.655 118.449C151.056 117.86 151.418 117.282 151.732 116.732C151.755 116.692 151.786 116.657 151.822 116.629C151.858 116.601 151.9 116.58 151.944 116.568C151.988 116.556 152.035 116.553 152.08 116.558C152.126 116.564 152.17 116.579 152.21 116.602C152.25 116.625 152.285 116.655 152.313 116.691C152.341 116.728 152.362 116.769 152.374 116.814C152.386 116.858 152.389 116.904 152.384 116.95C152.378 116.995 152.363 117.039 152.34 117.079C152.017 117.645 151.645 118.238 151.234 118.842C151.202 118.889 151.159 118.928 151.108 118.955C151.058 118.982 151.002 118.995 150.945 118.995H150.945ZM150.873 115.659H150.867C150.159 115.663 149.46 115.51 148.818 115.211C148.777 115.192 148.739 115.164 148.708 115.131C148.677 115.097 148.653 115.057 148.637 115.014C148.622 114.971 148.615 114.925 148.617 114.879C148.619 114.833 148.63 114.788 148.649 114.746C148.669 114.705 148.696 114.667 148.73 114.636C148.764 114.605 148.804 114.581 148.847 114.565C148.89 114.55 148.936 114.543 148.982 114.545C149.028 114.547 149.073 114.558 149.114 114.577C149.664 114.832 150.262 114.962 150.867 114.959C150.895 114.959 150.925 114.959 150.954 114.959H150.96C151.006 114.958 151.052 114.967 151.095 114.984C151.137 115.001 151.176 115.027 151.209 115.059C151.242 115.091 151.268 115.129 151.286 115.172C151.304 115.214 151.313 115.259 151.314 115.305C151.314 115.351 151.306 115.397 151.288 115.44C151.271 115.482 151.246 115.521 151.213 115.554C151.181 115.587 151.143 115.613 151.101 115.631C151.058 115.649 151.013 115.658 150.967 115.659C150.936 115.659 150.904 115.659 150.873 115.659H150.873ZM152.957 115.421C152.877 115.399 152.804 115.356 152.745 115.296C152.687 115.236 152.646 115.161 152.626 115.08C152.606 114.999 152.609 114.914 152.633 114.834C152.657 114.754 152.701 114.682 152.762 114.625C152.969 114.114 153.133 113.587 153.252 113.049C153.262 113.003 153.28 112.96 153.306 112.922C153.332 112.884 153.365 112.851 153.404 112.825C153.443 112.8 153.486 112.783 153.532 112.774C153.577 112.766 153.624 112.767 153.669 112.776C153.714 112.786 153.757 112.805 153.795 112.831C153.833 112.857 153.865 112.891 153.89 112.93C153.915 112.969 153.932 113.013 153.94 113.058C153.948 113.104 153.947 113.151 153.937 113.196C153.859 113.554 153.76 113.907 153.643 114.254C153.962 114.104 154.289 113.93 154.621 113.734C154.701 113.69 154.794 113.679 154.882 113.703C154.969 113.727 155.044 113.784 155.091 113.862C155.137 113.94 155.151 114.034 155.13 114.122C155.109 114.21 155.054 114.287 154.978 114.336C154.441 114.657 153.879 114.934 153.298 115.163L153.279 115.208C153.252 115.271 153.207 115.325 153.15 115.363C153.093 115.4 153.026 115.421 152.957 115.421L152.957 115.421ZM147.284 114.077C147.199 114.078 147.117 114.047 147.053 113.991C146.495 113.523 146.023 112.961 145.661 112.329C145.637 112.288 145.622 112.243 145.615 112.197C145.609 112.15 145.613 112.102 145.625 112.057C145.638 112.012 145.66 111.969 145.689 111.933C145.719 111.896 145.755 111.865 145.797 111.843C145.838 111.821 145.884 111.807 145.931 111.803C145.978 111.798 146.025 111.804 146.07 111.818C146.115 111.833 146.156 111.856 146.192 111.887C146.227 111.918 146.256 111.955 146.277 111.998C146.6 112.555 147.019 113.052 147.515 113.464C147.568 113.511 147.606 113.573 147.623 113.642C147.64 113.712 147.636 113.784 147.611 113.851C147.586 113.917 147.541 113.975 147.483 114.015C147.424 114.056 147.355 114.077 147.284 114.077H147.284ZM156.497 113.229C156.424 113.229 156.353 113.206 156.293 113.164C156.234 113.121 156.189 113.061 156.166 112.992C156.142 112.922 156.141 112.847 156.162 112.777C156.183 112.707 156.226 112.646 156.284 112.601C156.787 112.216 157.31 111.779 157.84 111.3C157.874 111.27 157.914 111.246 157.957 111.23C158.001 111.215 158.046 111.208 158.092 111.211C158.138 111.213 158.183 111.224 158.225 111.244C158.266 111.264 158.304 111.292 158.334 111.326C158.365 111.36 158.389 111.4 158.404 111.443C158.42 111.486 158.426 111.532 158.424 111.578C158.422 111.624 158.41 111.669 158.391 111.711C158.371 111.752 158.343 111.789 158.309 111.82C157.765 112.311 157.227 112.761 156.71 113.157C156.649 113.203 156.574 113.228 156.498 113.228L156.497 113.229ZM153.703 111.432C153.619 111.432 153.538 111.401 153.475 111.346C153.411 111.291 153.369 111.215 153.357 111.132C153.282 110.518 153.018 109.942 152.603 109.483C152.54 109.415 152.507 109.325 152.511 109.233C152.514 109.14 152.554 109.053 152.622 108.99C152.69 108.927 152.78 108.893 152.873 108.897C152.965 108.9 153.053 108.94 153.116 109.007C153.628 109.57 153.955 110.276 154.05 111.031C154.057 111.077 154.054 111.123 154.043 111.168C154.032 111.212 154.012 111.254 153.984 111.291C153.957 111.328 153.922 111.359 153.883 111.382C153.843 111.406 153.8 111.421 153.754 111.428C153.737 111.43 153.72 111.432 153.703 111.432ZM145.748 110.535C145.692 110.535 145.636 110.521 145.586 110.495C145.536 110.469 145.493 110.431 145.461 110.385C145.429 110.339 145.408 110.286 145.401 110.23C145.394 110.174 145.4 110.117 145.42 110.064C145.662 109.406 146.19 108.833 146.948 108.407C147.029 108.362 147.124 108.35 147.214 108.375C147.303 108.401 147.379 108.46 147.424 108.541C147.47 108.622 147.481 108.718 147.456 108.807C147.431 108.896 147.372 108.972 147.291 109.018C146.68 109.361 146.26 109.806 146.077 110.306C146.052 110.373 146.007 110.431 145.949 110.472C145.89 110.513 145.82 110.535 145.748 110.535V110.535ZM159.559 110.485C159.49 110.485 159.423 110.464 159.365 110.426C159.308 110.388 159.263 110.333 159.236 110.27C159.21 110.206 159.202 110.136 159.215 110.068C159.229 110.001 159.261 109.938 159.31 109.889C159.766 109.427 160.237 108.926 160.71 108.402C160.772 108.333 160.859 108.292 160.952 108.287C161.044 108.282 161.135 108.315 161.204 108.377C161.273 108.439 161.314 108.526 161.319 108.619C161.324 108.711 161.292 108.802 161.23 108.871C160.75 109.403 160.272 109.911 159.808 110.38C159.776 110.413 159.737 110.44 159.694 110.458C159.651 110.476 159.605 110.485 159.559 110.485V110.485ZM151.106 108.578C151.075 108.578 151.044 108.574 151.014 108.566C150.392 108.405 149.746 108.364 149.109 108.445C149.063 108.45 149.017 108.447 148.973 108.434C148.928 108.422 148.887 108.401 148.851 108.373C148.815 108.344 148.784 108.309 148.762 108.269C148.739 108.229 148.725 108.185 148.719 108.139C148.714 108.094 148.717 108.047 148.73 108.003C148.742 107.959 148.763 107.917 148.791 107.881C148.82 107.845 148.855 107.815 148.895 107.792C148.935 107.77 148.979 107.755 149.025 107.75C149.751 107.658 150.489 107.705 151.197 107.89C151.279 107.912 151.35 107.963 151.397 108.034C151.445 108.104 151.464 108.19 151.453 108.274C151.442 108.358 151.401 108.435 151.337 108.491C151.273 108.547 151.191 108.578 151.106 108.578V108.578ZM162.32 107.434C162.253 107.434 162.188 107.415 162.132 107.379C162.076 107.344 162.031 107.292 162.003 107.232C161.975 107.172 161.964 107.104 161.973 107.038C161.982 106.972 162.009 106.91 162.052 106.859C162.476 106.355 162.912 105.822 163.347 105.273C163.376 105.236 163.411 105.205 163.451 105.182C163.492 105.159 163.536 105.144 163.582 105.139C163.628 105.133 163.675 105.137 163.72 105.149C163.764 105.162 163.806 105.183 163.842 105.212C163.879 105.241 163.909 105.277 163.931 105.317C163.954 105.358 163.968 105.403 163.973 105.449C163.978 105.495 163.973 105.542 163.96 105.586C163.947 105.63 163.925 105.672 163.896 105.708C163.456 106.262 163.016 106.801 162.588 107.31C162.555 107.349 162.514 107.38 162.468 107.402C162.422 107.423 162.371 107.434 162.32 107.434H162.32ZM164.881 104.213C164.816 104.213 164.752 104.195 164.697 104.16C164.642 104.126 164.597 104.077 164.568 104.019C164.539 103.96 164.527 103.895 164.533 103.83C164.539 103.766 164.563 103.704 164.602 103.652C165.002 103.123 165.412 102.568 165.821 102.003C165.876 101.928 165.958 101.877 166.05 101.862C166.141 101.848 166.235 101.87 166.31 101.925C166.385 101.979 166.436 102.061 166.451 102.153C166.465 102.244 166.443 102.338 166.388 102.413C165.976 102.982 165.563 103.541 165.16 104.074C165.128 104.117 165.086 104.152 165.037 104.176C164.989 104.2 164.936 104.213 164.882 104.213H164.881ZM167.297 100.881C167.233 100.881 167.17 100.863 167.116 100.83C167.061 100.797 167.016 100.749 166.987 100.693C166.957 100.636 166.944 100.572 166.948 100.508C166.952 100.444 166.974 100.383 167.01 100.331C167.392 99.7845 167.783 99.2146 168.172 98.6382C168.224 98.5612 168.305 98.5081 168.396 98.4905C168.487 98.4728 168.581 98.4921 168.658 98.5441C168.735 98.5961 168.788 98.6765 168.806 98.7677C168.824 98.8588 168.804 98.9532 168.752 99.0302C168.36 99.6095 167.968 100.182 167.585 100.731C167.552 100.778 167.509 100.815 167.459 100.841C167.409 100.867 167.354 100.881 167.297 100.881L167.297 100.881ZM169.602 97.4706C169.538 97.4705 169.477 97.4534 169.422 97.4211C169.368 97.3887 169.324 97.3423 169.294 97.2868C169.264 97.2313 169.249 97.1687 169.252 97.1056C169.255 97.0426 169.274 96.9814 169.309 96.9286C169.679 96.3639 170.055 95.7825 170.427 95.2003C170.477 95.1221 170.556 95.0669 170.646 95.0469C170.737 95.0268 170.832 95.0437 170.91 95.0936C170.988 95.1435 171.044 95.2225 171.064 95.3132C171.084 95.4038 171.067 95.4987 171.017 95.5769C170.644 96.1614 170.266 96.7454 169.895 97.3129C169.863 97.3614 169.819 97.4011 169.768 97.4286C169.717 97.4561 169.66 97.4705 169.602 97.4704L169.602 97.4706ZM171.818 93.9986C171.756 93.9985 171.695 93.9818 171.641 93.9501C171.587 93.9184 171.543 93.873 171.513 93.8184C171.482 93.7638 171.467 93.7022 171.469 93.6398C171.47 93.5774 171.489 93.5166 171.522 93.4636C171.876 92.894 172.238 92.3053 172.598 91.7136C172.647 91.6343 172.724 91.5775 172.815 91.5555C172.905 91.5336 173 91.5483 173.079 91.5966C173.159 91.6449 173.216 91.7227 173.237 91.8129C173.259 91.9031 173.245 91.9983 173.196 92.0776C172.835 92.6712 172.472 93.262 172.116 93.8335C172.084 93.8838 172.04 93.9253 171.989 93.954C171.937 93.9827 171.878 93.9978 171.819 93.9977L171.818 93.9986ZM173.958 90.4823C173.896 90.4823 173.836 90.4658 173.782 90.4347C173.729 90.4036 173.685 90.3589 173.654 90.3051C173.624 90.2514 173.608 90.1905 173.609 90.1287C173.609 90.0669 173.626 90.0064 173.658 89.9533C174.012 89.3595 174.36 88.7694 174.702 88.1828C174.725 88.1425 174.755 88.1071 174.792 88.0787C174.828 88.0503 174.87 88.0294 174.915 88.0173C174.96 88.0052 175.007 88.0021 175.053 88.0083C175.098 88.0144 175.143 88.0295 175.183 88.0529C175.223 88.0763 175.258 88.1074 175.286 88.1444C175.314 88.1814 175.334 88.2235 175.345 88.2685C175.357 88.3134 175.359 88.3601 175.353 88.406C175.346 88.4518 175.33 88.4959 175.306 88.5356C174.963 89.1236 174.614 89.7156 174.259 90.3114C174.228 90.3634 174.184 90.4065 174.132 90.4364C174.079 90.4663 174.019 90.4821 173.959 90.4821L173.958 90.4823ZM176.034 86.9273C175.973 86.9273 175.912 86.9111 175.859 86.8805C175.806 86.8498 175.762 86.8058 175.731 86.7527C175.701 86.6996 175.684 86.6394 175.684 86.5781C175.684 86.5168 175.7 86.4565 175.73 86.4033C176.077 85.7993 176.415 85.2034 176.745 84.6154C176.768 84.5751 176.798 84.5397 176.834 84.5111C176.87 84.4825 176.912 84.4613 176.956 84.4488C177 84.4363 177.047 84.4327 177.093 84.4381C177.138 84.4436 177.183 84.458 177.223 84.4806C177.263 84.5032 177.298 84.5335 177.327 84.5698C177.355 84.606 177.376 84.6476 177.388 84.692C177.401 84.7364 177.404 84.7828 177.398 84.8285C177.393 84.8743 177.378 84.9184 177.355 84.9585C177.024 85.5473 176.685 86.1447 176.338 86.7505C176.307 86.8039 176.263 86.8482 176.21 86.879C176.156 86.9099 176.096 86.9261 176.034 86.9261L176.034 86.9273ZM178.053 83.3388C177.992 83.3388 177.932 83.3228 177.879 83.2926C177.826 83.2624 177.782 83.2189 177.751 83.1665C177.721 83.114 177.704 83.0544 177.703 82.9936C177.702 82.9327 177.717 82.8727 177.747 82.8194C178.087 82.2034 178.416 81.6022 178.735 81.0158C178.779 80.9343 178.854 80.8737 178.943 80.8473C179.032 80.821 179.128 80.8311 179.21 80.8755C179.291 80.9198 179.352 80.9947 179.378 81.0837C179.405 81.1728 179.395 81.2686 179.35 81.3501C179.031 81.9373 178.701 82.54 178.359 83.1581C178.329 83.2127 178.285 83.2581 178.231 83.2898C178.177 83.3214 178.116 83.3381 178.053 83.338L178.053 83.3388ZM180.019 79.7201C179.959 79.72 179.9 79.7043 179.847 79.6744C179.795 79.6446 179.751 79.6016 179.72 79.5498C179.689 79.4979 179.672 79.4389 179.67 79.3785C179.669 79.3181 179.683 79.2583 179.711 79.2051C180.049 78.5724 180.371 77.9663 180.675 77.387C180.696 77.3454 180.725 77.3084 180.76 77.2782C180.795 77.2479 180.836 77.225 180.881 77.2107C180.925 77.1965 180.972 77.1912 181.018 77.1952C181.064 77.1993 181.109 77.2125 181.151 77.2341C181.192 77.2558 181.228 77.2854 181.258 77.3213C181.287 77.3572 181.31 77.3987 181.323 77.4432C181.336 77.4878 181.341 77.5345 181.336 77.5808C181.331 77.6271 181.317 77.6719 181.294 77.7127C180.99 78.292 180.668 78.8994 180.328 79.5349C180.298 79.5906 180.254 79.6372 180.2 79.6697C180.145 79.7022 180.083 79.7193 180.02 79.7193L180.019 79.7201ZM181.936 76.0724C181.876 76.0724 181.817 76.0569 181.765 76.0275C181.712 75.998 181.668 75.9556 181.637 75.9043C181.606 75.853 181.589 75.7946 181.586 75.7346C181.584 75.6746 181.598 75.615 181.625 75.5617C181.974 74.8876 182.287 74.2737 182.563 73.729C182.584 73.6877 182.613 73.6509 182.647 73.6207C182.682 73.5906 182.723 73.5676 182.767 73.5531C182.81 73.5386 182.857 73.5329 182.903 73.5364C182.949 73.5398 182.993 73.5523 183.035 73.5732C183.076 73.594 183.112 73.6228 183.142 73.6579C183.172 73.6929 183.195 73.7336 183.209 73.7774C183.224 73.8213 183.229 73.8676 183.225 73.9136C183.222 73.9595 183.209 74.0043 183.188 74.0454C182.911 74.5914 182.597 75.2074 182.247 75.883C182.218 75.9399 182.173 75.9876 182.118 76.0209C182.064 76.0541 182.001 76.0717 181.937 76.0716L181.936 76.0724Z" fill="white"/>
<path d="M146.427 124.55C146.359 124.55 146.293 124.53 146.236 124.493C146.179 124.456 146.134 124.403 146.107 124.34C146.079 124.278 146.071 124.209 146.082 124.142C146.094 124.074 146.124 124.012 146.171 123.962C146.413 123.701 146.647 123.444 146.875 123.191C146.906 123.156 146.943 123.127 146.985 123.107C147.026 123.086 147.072 123.074 147.118 123.071C147.164 123.068 147.211 123.074 147.255 123.09C147.299 123.105 147.339 123.129 147.374 123.16C147.408 123.191 147.436 123.229 147.456 123.271C147.476 123.313 147.487 123.358 147.489 123.405C147.491 123.451 147.484 123.498 147.468 123.541C147.452 123.585 147.427 123.625 147.396 123.659C147.166 123.915 146.928 124.175 146.684 124.438C146.651 124.473 146.612 124.502 146.567 124.521C146.523 124.54 146.476 124.55 146.427 124.55V124.55Z" fill="white"/>
<path d="M131.772 102.023C131.712 102.023 131.654 102.008 131.602 101.979C131.55 101.95 131.506 101.908 131.475 101.858C131.443 101.807 131.425 101.749 131.423 101.69C131.42 101.63 131.432 101.571 131.458 101.518C131.743 100.941 131.897 100.588 131.899 100.585C131.936 100.5 132.006 100.433 132.092 100.4C132.178 100.366 132.274 100.368 132.359 100.404C132.444 100.441 132.511 100.51 132.545 100.596C132.579 100.682 132.578 100.778 132.541 100.863C132.535 100.878 132.38 101.234 132.086 101.828C132.057 101.887 132.012 101.936 131.957 101.97C131.901 102.005 131.837 102.023 131.772 102.023Z" fill="white"/>
<path d="M114.833 118.824C114.765 118.824 114.698 118.805 114.641 118.767C114.584 118.73 114.539 118.677 114.512 118.615C114.485 118.553 114.476 118.484 114.487 118.417C114.499 118.35 114.529 118.288 114.575 118.238C115.074 117.694 115.549 117.159 115.985 116.646C116.015 116.61 116.051 116.581 116.093 116.559C116.134 116.538 116.178 116.525 116.225 116.521C116.271 116.517 116.317 116.522 116.361 116.536C116.406 116.55 116.446 116.573 116.482 116.603C116.517 116.633 116.546 116.67 116.567 116.711C116.588 116.752 116.6 116.797 116.604 116.844C116.607 116.89 116.601 116.936 116.587 116.98C116.572 117.024 116.549 117.065 116.518 117.1C116.076 117.619 115.595 118.162 115.09 118.711C115.058 118.747 115.018 118.776 114.973 118.795C114.929 118.815 114.881 118.825 114.833 118.824V118.824ZM117.6 115.561C117.534 115.561 117.47 115.542 117.415 115.508C117.359 115.473 117.315 115.424 117.286 115.365C117.257 115.307 117.245 115.241 117.251 115.176C117.258 115.111 117.282 115.049 117.322 114.998C117.78 114.401 118.193 113.822 118.55 113.277C118.575 113.239 118.608 113.206 118.646 113.18C118.684 113.154 118.726 113.136 118.771 113.127C118.816 113.117 118.863 113.117 118.908 113.125C118.953 113.134 118.996 113.151 119.034 113.176C119.073 113.202 119.106 113.234 119.132 113.272C119.158 113.31 119.176 113.353 119.185 113.398C119.195 113.443 119.195 113.489 119.187 113.534C119.178 113.58 119.161 113.623 119.135 113.661C118.769 114.22 118.346 114.813 117.877 115.424C117.845 115.466 117.803 115.501 117.754 115.525C117.706 115.548 117.653 115.561 117.6 115.561V115.561ZM120.019 113.65C119.93 113.65 119.844 113.616 119.78 113.555C119.715 113.494 119.676 113.41 119.671 113.321C119.665 113.232 119.694 113.145 119.751 113.076C119.808 113.008 119.889 112.964 119.977 112.953C120.653 112.866 121.314 112.686 121.942 112.419C122.027 112.383 122.124 112.382 122.21 112.417C122.296 112.453 122.364 112.52 122.4 112.606C122.436 112.692 122.436 112.788 122.401 112.874C122.366 112.96 122.298 113.028 122.213 113.064C121.526 113.356 120.802 113.553 120.062 113.648C120.048 113.649 120.034 113.65 120.019 113.65V113.65ZM117.891 113.579C117.869 113.579 117.846 113.576 117.825 113.572C117.092 113.427 116.383 113.182 115.717 112.843C115.635 112.801 115.573 112.728 115.544 112.641C115.515 112.553 115.522 112.457 115.564 112.375C115.605 112.292 115.678 112.229 115.765 112.2C115.853 112.171 115.949 112.177 116.031 112.218C116.639 112.528 117.287 112.752 117.957 112.885C118.042 112.901 118.118 112.949 118.171 113.019C118.223 113.088 118.247 113.175 118.239 113.262C118.231 113.348 118.191 113.429 118.126 113.487C118.062 113.546 117.978 113.578 117.891 113.579V113.579ZM123.948 112.058C123.873 112.058 123.801 112.035 123.74 111.99C123.68 111.946 123.636 111.884 123.614 111.812C123.591 111.741 123.593 111.664 123.617 111.594C123.642 111.523 123.688 111.462 123.75 111.42C124.323 111.023 124.867 110.585 125.377 110.11C125.411 110.079 125.45 110.055 125.494 110.039C125.537 110.023 125.583 110.016 125.628 110.018C125.674 110.02 125.719 110.03 125.761 110.05C125.803 110.069 125.841 110.096 125.872 110.13C125.903 110.164 125.927 110.203 125.943 110.246C125.959 110.289 125.966 110.335 125.964 110.381C125.963 110.427 125.952 110.472 125.933 110.514C125.913 110.556 125.886 110.593 125.852 110.625C125.317 111.122 124.747 111.581 124.146 111.997C124.087 112.037 124.018 112.058 123.947 112.058H123.948ZM119.913 111.968C119.853 111.968 119.795 111.952 119.743 111.923C119.691 111.895 119.647 111.853 119.616 111.803C119.584 111.752 119.566 111.695 119.563 111.635C119.56 111.576 119.572 111.517 119.599 111.464C119.91 110.856 120.142 110.21 120.287 109.542C120.304 109.451 120.358 109.371 120.435 109.319C120.511 109.267 120.606 109.247 120.697 109.265C120.788 109.283 120.869 109.336 120.921 109.413C120.972 109.49 120.992 109.584 120.974 109.675C120.817 110.403 120.566 111.108 120.227 111.771C120.198 111.83 120.153 111.88 120.098 111.915C120.042 111.949 119.978 111.968 119.912 111.968H119.913ZM114.116 111.676C114.023 111.676 113.934 111.639 113.869 111.574C113.27 110.978 112.967 110.342 112.967 109.683C112.967 109.578 112.975 109.473 112.99 109.369C113.004 109.277 113.054 109.195 113.128 109.14C113.203 109.085 113.296 109.061 113.388 109.075C113.48 109.089 113.563 109.138 113.618 109.213C113.673 109.288 113.696 109.381 113.682 109.473C113.672 109.543 113.667 109.613 113.667 109.683C113.667 110.149 113.901 110.618 114.363 111.079C114.412 111.127 114.445 111.19 114.459 111.258C114.473 111.326 114.466 111.396 114.439 111.46C114.413 111.524 114.368 111.579 114.31 111.617C114.253 111.656 114.185 111.677 114.116 111.676V111.676ZM127.104 109.179C127.037 109.179 126.971 109.16 126.914 109.124C126.858 109.087 126.813 109.035 126.785 108.974C126.757 108.913 126.748 108.845 126.758 108.778C126.768 108.712 126.796 108.65 126.841 108.599C127.284 108.093 127.729 107.538 128.164 106.952C128.219 106.878 128.302 106.829 128.393 106.816C128.485 106.802 128.578 106.826 128.652 106.881C128.726 106.936 128.776 107.018 128.79 107.109C128.803 107.201 128.781 107.294 128.726 107.368C128.28 107.97 127.823 108.54 127.367 109.06C127.334 109.098 127.294 109.128 127.248 109.148C127.203 109.169 127.153 109.18 127.103 109.179H127.104ZM114.52 108.052C114.446 108.052 114.375 108.029 114.315 107.986C114.256 107.943 114.211 107.883 114.188 107.813C114.165 107.743 114.164 107.668 114.186 107.598C114.208 107.528 114.251 107.467 114.31 107.422C114.921 106.974 115.608 106.639 116.338 106.433C116.426 106.41 116.52 106.422 116.6 106.467C116.679 106.512 116.738 106.586 116.764 106.674C116.789 106.761 116.779 106.856 116.736 106.936C116.693 107.017 116.62 107.077 116.533 107.105C115.885 107.289 115.275 107.586 114.731 107.982C114.67 108.028 114.595 108.052 114.519 108.052L114.52 108.052ZM120.372 107.889C120.313 107.889 120.256 107.874 120.204 107.846C120.153 107.818 120.11 107.778 120.078 107.729C119.704 107.15 119.02 106.96 118.512 106.901C118.466 106.897 118.422 106.883 118.381 106.861C118.34 106.838 118.304 106.808 118.275 106.772C118.247 106.736 118.225 106.695 118.212 106.65C118.199 106.606 118.195 106.559 118.201 106.513C118.206 106.467 118.22 106.423 118.243 106.382C118.266 106.342 118.296 106.307 118.332 106.278C118.369 106.249 118.41 106.228 118.455 106.216C118.5 106.204 118.546 106.2 118.592 106.206C119.535 106.314 120.252 106.71 120.666 107.349C120.7 107.401 120.719 107.462 120.721 107.525C120.724 107.588 120.709 107.651 120.679 107.706C120.649 107.761 120.605 107.807 120.55 107.84C120.496 107.872 120.434 107.889 120.372 107.889H120.372ZM129.662 105.747C129.599 105.747 129.537 105.73 129.483 105.698C129.429 105.665 129.385 105.619 129.355 105.564C129.324 105.509 129.31 105.447 129.312 105.384C129.314 105.321 129.334 105.26 129.368 105.207C129.743 104.624 130.112 104.013 130.465 103.39C130.488 103.35 130.518 103.314 130.554 103.286C130.59 103.257 130.632 103.236 130.676 103.224C130.721 103.211 130.767 103.208 130.813 103.213C130.859 103.219 130.903 103.233 130.944 103.256C130.984 103.279 131.019 103.309 131.047 103.346C131.076 103.382 131.097 103.424 131.109 103.469C131.121 103.513 131.124 103.56 131.118 103.605C131.112 103.651 131.097 103.695 131.074 103.735C130.715 104.37 130.339 104.992 129.956 105.586C129.924 105.636 129.881 105.676 129.829 105.705C129.777 105.733 129.72 105.747 129.661 105.747L129.662 105.747Z" fill="white"/>
<path d="M112.613 121.137C112.543 121.137 112.476 121.117 112.418 121.078C112.361 121.04 112.316 120.985 112.289 120.922C112.263 120.858 112.256 120.787 112.269 120.72C112.282 120.652 112.316 120.589 112.364 120.54C112.616 120.288 112.861 120.04 113.099 119.796C113.164 119.729 113.252 119.691 113.345 119.69C113.438 119.689 113.527 119.725 113.594 119.79C113.66 119.854 113.698 119.943 113.699 120.036C113.701 120.129 113.665 120.218 113.6 120.285C113.36 120.531 113.113 120.781 112.86 121.035C112.827 121.067 112.789 121.093 112.746 121.111C112.704 121.128 112.658 121.137 112.613 121.137V121.137Z" fill="white"/>
</svg>
